<svg id="Layer_1" enable-background="new 0 0 512 512" height="512" viewBox="0 0 512 512" width="512" xmlns="http://www.w3.org/2000/svg"><g><g><path d="m241 0h30v102.313h-30z" fill="#3e34c2"/></g><g><path d="m0 241h102.313v30h-102.313z" fill="#3e34c2"/></g><g><path d="m409.688 241h102.313v30h-102.313z" fill="#23238e"/></g><g><path d="m241 409.688h30v102.312h-30z" fill="#3e34c2"/></g><g><path d="m256 0h15v102.313h-15z" fill="#23238e"/></g><g><path d="m256 409.688h15v102.312h-15z" fill="#23238e"/></g><g><path d="m256 424.688c-93.015 0-168.688-75.673-168.688-168.688s75.673-168.687 168.688-168.687 28.985 75.672 28.985 168.687 64.03 168.688-28.985 168.688z" fill="#d0e8ff"/></g><path d="m256 87.313v337.375c93.015 0 168.688-75.673 168.688-168.688s-75.673-168.687-168.688-168.687z" fill="#9dcfff"/><g><g><path d="m275.85 303.766-19.85 40.559-78.515-40.559v-95.532l78.515-40.559 19.85 40.559z" fill="#ff3980"/></g><g><path d="m334.515 303.766-78.515 40.559v-176.65l78.515 40.559z" fill="#e20a6c"/></g><g><path d="m256 167.675-78.515 40.559 78.515 40.558 19.85-40.558z" fill="#ad0551"/></g><g><path d="m256 167.675v81.117l78.515-40.558z" fill="#7f244b"/></g></g><g><path d="m56.487 199.793-28.881-8.118c10.94-38.917 31.913-74.678 60.652-103.417 28.738-28.739 64.499-49.712 103.416-60.652l8.119 28.881c-68.998 19.396-123.91 74.308-143.306 143.306z" fill="#6e67d5"/></g><g><path d="m455.513 199.793c-19.396-68.998-74.308-123.91-143.307-143.306l8.119-28.881c38.917 10.94 74.678 31.913 103.416 60.652 28.739 28.739 49.712 64.5 60.652 103.417z" fill="#554cce"/></g><g><path d="m191.675 484.394c-38.917-10.94-74.678-31.913-103.416-60.652-28.739-28.739-49.712-64.5-60.652-103.417l28.881-8.118c19.396 68.998 74.308 123.91 143.307 143.306z" fill="#6e67d5"/></g><g><path d="m320.325 484.394-8.119-28.881c68.999-19.396 123.911-74.308 143.307-143.306l28.881 8.118c-10.94 38.917-31.913 74.678-60.652 103.417-28.739 28.738-64.5 49.712-103.417 60.652z" fill="#554cce"/></g></g></svg>